<svg width="48" height="42" viewBox="0 0 48 42" fill="none" xmlns="http://www.w3.org/2000/svg">
<path d="M13.2696 24.901C15.6724 24.901 17.5836 25.6655 19.0034 27.1945C20.4232 28.6143 21.1331 30.5802 21.1331 33.0921C21.1331 35.8225 20.2594 37.9522 18.5119 39.4812C16.8737 40.901 14.5802 41.6109 11.6314 41.6109C8.0273 41.6109 5.18771 40.2457 3.11263 37.5154C1.03754 34.6758 0 30.6894 0 25.5563C0 20.7508 1.03754 16.3276 3.11263 12.2867C5.29693 8.24573 8.46416 4.20477 12.6143 0.16382C12.7235 0.054606 12.8874 0 13.1058 0C13.4334 0 13.7065 0.163824 13.9249 0.491471C14.1433 0.819112 14.1433 1.09215 13.9249 1.31058C8.57338 6.77133 5.89761 13.215 5.89761 20.6416C5.89761 23.6997 6.44369 25.9386 7.53584 27.3584C8.51877 25.7201 10.43 24.901 13.2696 24.901ZM40.1365 24.901C42.5392 24.901 44.4505 25.6655 45.8703 27.1945C47.2901 28.6143 48 30.5802 48 33.0921C48 35.8225 47.1263 37.9522 45.3788 39.4812C43.7406 40.901 41.4471 41.6109 38.4983 41.6109C34.8942 41.6109 32.0546 40.2457 29.9795 37.5154C27.9044 34.6758 26.8669 30.6894 26.8669 25.5563C26.8669 20.7508 27.9044 16.3276 29.9795 12.2867C32.1638 8.24573 35.3311 4.20477 39.4812 0.16382C39.5904 0.054606 39.7543 0 39.9727 0C40.3003 0 40.5734 0.163824 40.7918 0.491471C41.0102 0.819112 41.0102 1.09215 40.7918 1.31058C35.4403 6.77133 32.7645 13.215 32.7645 20.6416C32.7645 23.6997 33.3106 25.9386 34.4027 27.3584C35.3857 25.7201 37.2969 24.901 40.1365 24.901Z" fill="white"/>
</svg>
