<svg width="119" height="42" viewBox="0 0 119 42" fill="none" xmlns="http://www.w3.org/2000/svg">
<circle cx="30.3396" cy="27.5" r="10.5" stroke="#7296F2" stroke-width="7"/>
<circle cx="14" cy="14.5" r="10.5" stroke="#1D53DD" stroke-width="7"/>
<path d="M63.7544 19.2557C62.4078 19.2557 61.2487 18.983 60.2771 18.4375C59.3112 17.8864 58.5669 17.108 58.0441 16.1023C57.5214 15.0909 57.2601 13.8949 57.2601 12.5142C57.2601 11.1676 57.5214 9.9858 58.0441 8.96875C58.5669 7.9517 59.3027 7.15909 60.2515 6.59091C61.2061 6.02273 62.3254 5.73864 63.6095 5.73864C64.4731 5.73864 65.2771 5.87784 66.0214 6.15625C66.7714 6.42898 67.4248 6.84091 67.9816 7.39205C68.5441 7.94318 68.9816 8.63636 69.2941 9.47159C69.6066 10.3011 69.7629 11.2727 69.7629 12.3864V13.3835H58.7089V11.1335H66.3453C66.3453 10.6108 66.2316 10.1477 66.0044 9.74432C65.7771 9.34091 65.4618 9.02557 65.0583 8.7983C64.6606 8.56534 64.1976 8.44886 63.6691 8.44886C63.118 8.44886 62.6294 8.5767 62.2032 8.83239C61.7828 9.08239 61.4532 9.42045 61.2146 9.84659C60.976 10.267 60.8538 10.7358 60.8481 11.2528V13.392C60.8481 14.0398 60.9674 14.5994 61.2061 15.071C61.4504 15.5426 61.7941 15.9062 62.2373 16.1619C62.6805 16.4176 63.2061 16.5455 63.814 16.5455C64.2174 16.5455 64.5868 16.4886 64.922 16.375C65.2572 16.2614 65.5441 16.0909 65.7828 15.8636C66.0214 15.6364 66.2032 15.358 66.3282 15.0284L69.6862 15.25C69.5157 16.0568 69.1663 16.7614 68.6379 17.3636C68.1152 17.9602 67.439 18.4261 66.6095 18.7614C65.7856 19.0909 64.8339 19.2557 63.7544 19.2557ZM82.0243 9.64205L78.7004 9.84659C78.6436 9.5625 78.5214 9.30682 78.3339 9.07955C78.1464 8.84659 77.8993 8.66193 77.5924 8.52557C77.2913 8.38352 76.9305 8.3125 76.5101 8.3125C75.9476 8.3125 75.4731 8.43182 75.0868 8.67045C74.7004 8.90341 74.5072 9.21591 74.5072 9.60795C74.5072 9.92045 74.6322 10.1847 74.8822 10.4006C75.1322 10.6165 75.5612 10.7898 76.1691 10.9205L78.5385 11.3977C79.8112 11.6591 80.7601 12.0795 81.3851 12.6591C82.0101 13.2386 82.3226 14 82.3226 14.9432C82.3226 15.8011 82.0697 16.554 81.564 17.2017C81.064 17.8494 80.3765 18.3551 79.5015 18.7188C78.6322 19.0767 77.6294 19.2557 76.493 19.2557C74.7601 19.2557 73.3794 18.8949 72.351 18.1733C71.3282 17.446 70.7288 16.4574 70.5527 15.2074L74.1237 15.0199C74.2316 15.5483 74.493 15.9517 74.9078 16.2301C75.3226 16.5028 75.8538 16.6392 76.5015 16.6392C77.1379 16.6392 77.6493 16.517 78.0356 16.2727C78.4277 16.0227 78.6265 15.7017 78.6322 15.3097C78.6265 14.9801 78.4873 14.7102 78.2146 14.5C77.9419 14.2841 77.5214 14.1193 76.9532 14.0057L74.6862 13.554C73.4078 13.2983 72.4561 12.8551 71.8311 12.2244C71.2118 11.5937 70.9021 10.7898 70.9021 9.8125C70.9021 8.97159 71.1294 8.24716 71.5839 7.6392C72.0441 7.03125 72.689 6.5625 73.5186 6.23295C74.3538 5.90341 75.3311 5.73864 76.4504 5.73864C78.1038 5.73864 79.4049 6.08807 80.3538 6.78693C81.3083 7.4858 81.8652 8.4375 82.0243 9.64205ZM89.5747 19.2557C88.2281 19.2557 87.069 18.983 86.0974 18.4375C85.1315 17.8864 84.3872 17.108 83.8645 16.1023C83.3417 15.0909 83.0804 13.8949 83.0804 12.5142C83.0804 11.1676 83.3417 9.9858 83.8645 8.96875C84.3872 7.9517 85.123 7.15909 86.0718 6.59091C87.0264 6.02273 88.1457 5.73864 89.4298 5.73864C90.2934 5.73864 91.0974 5.87784 91.8417 6.15625C92.5917 6.42898 93.2451 6.84091 93.802 7.39205C94.3645 7.94318 94.802 8.63636 95.1145 9.47159C95.427 10.3011 95.5832 11.2727 95.5832 12.3864V13.3835H84.5292V11.1335H92.1656C92.1656 10.6108 92.052 10.1477 91.8247 9.74432C91.5974 9.34091 91.2821 9.02557 90.8787 8.7983C90.4809 8.56534 90.0179 8.44886 89.4895 8.44886C88.9383 8.44886 88.4497 8.5767 88.0235 8.83239C87.6031 9.08239 87.2735 9.42045 87.0349 9.84659C86.7963 10.267 86.6741 10.7358 86.6684 11.2528V13.392C86.6684 14.0398 86.7878 14.5994 87.0264 15.071C87.2707 15.5426 87.6145 15.9062 88.0576 16.1619C88.5008 16.4176 89.0264 16.5455 89.6343 16.5455C90.0378 16.5455 90.4071 16.4886 90.7423 16.375C91.0775 16.2614 91.3645 16.0909 91.6031 15.8636C91.8417 15.6364 92.0235 15.358 92.1485 15.0284L95.5065 15.25C95.336 16.0568 94.9866 16.7614 94.4582 17.3636C93.9355 17.9602 93.2593 18.4261 92.4298 18.7614C91.6059 19.0909 90.6542 19.2557 89.5747 19.2557ZM96.9525 19V5.90909H100.413V8.21875H100.566C100.839 7.4517 101.293 6.84659 101.93 6.40341C102.566 5.96023 103.328 5.73864 104.214 5.73864C105.112 5.73864 105.876 5.96307 106.507 6.41193C107.137 6.85511 107.558 7.45739 107.768 8.21875H107.904C108.171 7.46875 108.654 6.86932 109.353 6.42045C110.058 5.96591 110.89 5.73864 111.85 5.73864C113.072 5.73864 114.063 6.12784 114.825 6.90625C115.592 7.67898 115.975 8.77557 115.975 10.196V19H112.353V10.9119C112.353 10.1847 112.16 9.6392 111.774 9.27557C111.387 8.91193 110.904 8.73011 110.325 8.73011C109.666 8.73011 109.151 8.94034 108.782 9.3608C108.413 9.77557 108.228 10.3239 108.228 11.0057V19H104.708V10.8352C104.708 10.1932 104.524 9.68182 104.154 9.30114C103.791 8.92045 103.31 8.73011 102.714 8.73011C102.31 8.73011 101.947 8.83239 101.623 9.03693C101.305 9.2358 101.052 9.51705 100.864 9.88068C100.677 10.2386 100.583 10.6591 100.583 11.142V19H96.9525ZM61.4191 22.5455V40H57.7885V22.5455H61.4191ZM67.0605 40.2472C66.2253 40.2472 65.4809 40.1023 64.8275 39.8125C64.1741 39.517 63.6571 39.0824 63.2764 38.5085C62.9014 37.929 62.7139 37.2074 62.7139 36.3438C62.7139 35.6165 62.8474 35.0057 63.1145 34.5114C63.3815 34.017 63.7451 33.6193 64.2054 33.3182C64.6656 33.017 65.1883 32.7898 65.7735 32.6364C66.3645 32.483 66.9838 32.375 67.6315 32.3125C68.3929 32.233 69.0065 32.1591 69.4724 32.0909C69.9383 32.017 70.2764 31.9091 70.4866 31.767C70.6968 31.625 70.802 31.4148 70.802 31.1364V31.0852C70.802 30.5455 70.6315 30.1278 70.2906 29.8324C69.9554 29.5369 69.4781 29.3892 68.8588 29.3892C68.2054 29.3892 67.6855 29.5341 67.2991 29.8239C66.9128 30.108 66.6571 30.4659 66.5321 30.8977L63.1741 30.625C63.3446 29.8295 63.6798 29.142 64.1798 28.5625C64.6798 27.9773 65.3247 27.5284 66.1145 27.2159C66.9099 26.8977 67.8304 26.7386 68.8758 26.7386C69.6031 26.7386 70.2991 26.8239 70.9639 26.9943C71.6343 27.1648 72.2281 27.429 72.7451 27.7869C73.2679 28.1449 73.6798 28.6051 73.9809 29.1676C74.2821 29.7244 74.4326 30.392 74.4326 31.1705V40H70.9895V38.1847H70.8872C70.677 38.5938 70.3957 38.9545 70.0434 39.267C69.6912 39.5739 69.2679 39.8153 68.7735 39.9915C68.2792 40.1619 67.7082 40.2472 67.0605 40.2472ZM68.1003 37.7415C68.6343 37.7415 69.1059 37.6364 69.515 37.4261C69.9241 37.2102 70.2451 36.9205 70.4781 36.5568C70.711 36.1932 70.8275 35.7812 70.8275 35.321V33.9318C70.7139 34.0057 70.5576 34.0739 70.3588 34.1364C70.1656 34.1932 69.9468 34.2472 69.7025 34.2983C69.4582 34.3437 69.2139 34.3864 68.9696 34.4261C68.7253 34.4602 68.5037 34.4915 68.3048 34.5199C67.8787 34.5824 67.5065 34.6818 67.1883 34.8182C66.8701 34.9545 66.623 35.1392 66.4468 35.3722C66.2707 35.5994 66.1826 35.8835 66.1826 36.2244C66.1826 36.7188 66.3616 37.0966 66.7196 37.358C67.0832 37.6136 67.5434 37.7415 68.1003 37.7415ZM76.3176 40V22.5455H79.9483V29.108H80.0591C80.2182 28.7557 80.4483 28.3977 80.7494 28.0341C81.0562 27.6648 81.4539 27.358 81.9426 27.1136C82.4369 26.8636 83.0505 26.7386 83.7835 26.7386C84.738 26.7386 85.6187 26.9886 86.4255 27.4886C87.2324 27.983 87.8772 28.7301 88.3602 29.7301C88.8432 30.7244 89.0846 31.9716 89.0846 33.4716C89.0846 34.9318 88.8488 36.1648 88.3772 37.1705C87.9113 38.1705 87.275 38.929 86.4682 39.446C85.667 39.9574 84.7693 40.2131 83.775 40.2131C83.0704 40.2131 82.471 40.0966 81.9767 39.8636C81.488 39.6307 81.0875 39.3381 80.775 38.9858C80.4625 38.6278 80.2238 38.267 80.0591 37.9034H79.8971V40H76.3176ZM79.8716 33.4545C79.8716 34.233 79.9795 34.9119 80.1954 35.4915C80.4113 36.071 80.7238 36.5227 81.1329 36.8466C81.542 37.1648 82.0392 37.3239 82.6244 37.3239C83.2153 37.3239 83.7153 37.1619 84.1244 36.8381C84.5335 36.5085 84.8432 36.054 85.0534 35.4744C85.2693 34.8892 85.3772 34.2159 85.3772 33.4545C85.3772 32.6989 85.2721 32.0341 85.0619 31.4602C84.8517 30.8864 84.542 30.4375 84.1329 30.1136C83.7238 29.7898 83.221 29.6278 82.6244 29.6278C82.0335 29.6278 81.5335 29.7841 81.1244 30.0966C80.721 30.4091 80.4113 30.8523 80.1954 31.4261C79.9795 32 79.8716 32.6761 79.8716 33.4545ZM92.6294 40.2216C92.0669 40.2216 91.5839 40.0227 91.1805 39.625C90.7828 39.2216 90.5839 38.7386 90.5839 38.1761C90.5839 37.6193 90.7828 37.142 91.1805 36.7443C91.5839 36.3466 92.0669 36.1477 92.6294 36.1477C93.1748 36.1477 93.6521 36.3466 94.0612 36.7443C94.4703 37.142 94.6748 37.6193 94.6748 38.1761C94.6748 38.5511 94.5782 38.8949 94.3851 39.2074C94.1976 39.5142 93.9504 39.7614 93.6436 39.9489C93.3368 40.1307 92.9987 40.2216 92.6294 40.2216Z" fill="#1B1F29"/>
</svg>
